<svg width="76" height="76" viewBox="0 0 76 76" fill="none" xmlns="http://www.w3.org/2000/svg">
<path fill-rule="evenodd" clip-rule="evenodd" d="M9.39842e-07 6.34946C9.39842e-07 4.66548 0.668959 3.05047 1.85971 1.85972C3.05047 0.668967 4.66548 8.46472e-06 6.34946 8.46472e-06H69.6436C70.4782 -0.00135453 71.3048 0.161899 72.0761 0.480421C72.8475 0.798943 73.5484 1.26648 74.1389 1.85626C74.7293 2.44604 75.1976 3.14649 75.5169 3.9175C75.8363 4.6885 76.0005 5.51493 76 6.34946V69.6436C76.0009 70.4783 75.8372 71.305 75.5183 72.0764C75.1994 72.8478 74.7316 73.5487 74.1415 74.1391C73.5515 74.7294 72.8508 75.1977 72.0796 75.517C71.3084 75.8363 70.4818 76.0005 69.6471 76H6.34946C5.51534 76 4.6894 75.8357 3.91883 75.5163C3.14825 75.197 2.44814 74.729 1.85849 74.1391C1.26884 73.5491 0.801219 72.8487 0.482333 72.078C0.163446 71.3072 -0.000452876 70.4812 9.39842e-07 69.6471V6.34946ZM30.0822 28.9767H40.3733V34.1447C41.8587 31.1738 45.6587 28.5 51.3691 28.5C62.3165 28.5 64.9109 34.4176 64.9109 45.2753V65.3876H53.8322V47.7487C53.8322 41.5651 52.3467 38.076 48.5744 38.076C43.3407 38.076 41.1644 41.838 41.1644 47.7487V65.3876H30.0822V28.9767ZM11.0822 64.9144H22.1644V28.5H11.0822V64.9109V64.9144ZM23.75 16.6233C23.7709 17.5721 23.602 18.5156 23.2534 19.3984C22.9047 20.2811 22.3832 21.0853 21.7195 21.7638C21.0558 22.4422 20.2633 22.9813 19.3885 23.3493C18.5136 23.7173 17.5741 23.9069 16.625 23.9069C15.6759 23.9069 14.7364 23.7173 13.8615 23.3493C12.9867 22.9813 12.1942 22.4422 11.5305 21.7638C10.8668 21.0853 10.3453 20.2811 9.99663 19.3984C9.64795 18.5156 9.47911 17.5721 9.5 16.6233C9.54101 14.7608 10.3097 12.9884 11.6414 11.6857C12.9732 10.3829 14.762 9.65345 16.625 9.65345C18.488 9.65345 20.2768 10.3829 21.6086 11.6857C22.9403 12.9884 23.709 14.7608 23.75 16.6233Z" fill="black"/>
</svg>
