<svg width="512" height="512" viewBox="0 0 512 512" fill="none" xmlns="http://www.w3.org/2000/svg">
<path d="M362.667 170.667V149.333C362.667 90.5174 314.816 42.6667 256 42.6667C197.184 42.6667 149.333 90.5174 149.333 149.333V213.333H128C104.469 213.333 85.3333 232.469 85.3333 256V426.667C85.3333 450.197 104.469 469.333 128 469.333H384C407.531 469.333 426.667 450.197 426.667 426.667V256C426.667 232.469 407.531 213.333 384 213.333H192V149.333C192 114.048 220.715 85.3334 256 85.3334C291.285 85.3334 320 114.048 320 149.333V170.667H362.667Z" fill="black" fill-opacity="0.2"/>
</svg>
