<svg width="512" height="512" viewBox="0 0 512 512" fill="none" xmlns="http://www.w3.org/2000/svg">
<g clip-path="url(#clip0_64:85)">
<path d="M192 64C213.217 64 233.566 72.4285 248.569 87.4315C263.571 102.434 272 122.783 272 144C272 165.217 263.571 185.566 248.569 200.569C233.566 215.571 213.217 224 192 224C170.783 224 150.434 215.571 135.431 200.569C120.429 185.566 112 165.217 112 144C112 122.783 120.429 102.434 135.431 87.4315C150.434 72.4285 170.783 64 192 64ZM305.12 203.552C296.923 194.732 291.381 183.779 289.13 171.95C286.878 160.122 288.009 147.898 292.393 136.684C296.777 125.469 304.235 115.719 313.911 108.553C323.587 101.387 335.089 97.0955 347.094 96.1724C359.099 95.2492 371.122 97.7314 381.779 103.334C392.437 108.936 401.299 117.432 407.346 127.844C413.392 138.256 416.379 150.163 415.963 162.197C415.546 174.23 411.744 185.902 404.992 195.872C371.657 188.745 336.973 191.412 305.12 203.552ZM198.624 416H193.92C110.272 416 64 387.136 64 328.832V304C64 291.27 69.0571 279.061 78.0589 270.059C87.0606 261.057 99.2696 256 112 256H232.224C206.166 287.501 191.938 327.118 192 368C192 384.64 194.304 400.736 198.624 416ZM368 512C406.191 512 442.818 496.829 469.823 469.823C496.829 442.818 512 406.191 512 368C512 329.809 496.829 293.182 469.823 266.177C442.818 239.171 406.191 224 368 224C329.809 224 293.182 239.171 266.177 266.177C239.171 293.182 224 329.809 224 368C224 406.191 239.171 442.818 266.177 469.823C293.182 496.829 329.809 512 368 512ZM443.328 331.328L347.328 427.328C345.842 428.818 344.076 430 342.132 430.807C340.188 431.613 338.105 432.029 336 432.029C333.895 432.029 331.812 431.613 329.868 430.807C327.924 430 326.158 428.818 324.672 427.328L292.672 395.328C289.668 392.324 287.98 388.249 287.98 384C287.98 379.751 289.668 375.676 292.672 372.672C295.676 369.668 299.751 367.98 304 367.98C308.249 367.98 312.324 369.668 315.328 372.672L336 393.376L420.672 308.672C423.676 305.668 427.751 303.98 432 303.98C436.249 303.98 440.324 305.668 443.328 308.672C446.332 311.676 448.02 315.751 448.02 320C448.02 324.249 446.332 328.324 443.328 331.328Z" fill="black" fill-opacity="0.2"/>
</g>
<defs>
<clipPath id="clip0_64:85">
<rect width="512" height="512" fill="white"/>
</clipPath>
</defs>
</svg>
