<svg width="512" height="512" viewBox="0 0 512 512" fill="none" xmlns="http://www.w3.org/2000/svg">
<path d="M256 152C273.405 152 290.419 157.161 304.89 166.831C319.362 176.5 330.641 190.244 337.301 206.324C343.962 222.404 345.705 240.098 342.309 257.168C338.914 274.238 330.532 289.918 318.225 302.225C305.918 314.532 290.238 322.914 273.168 326.309C256.098 329.705 238.404 327.962 222.324 321.301C206.244 314.641 192.5 303.362 182.831 288.89C173.161 274.419 168 257.405 168 240C168 216.661 177.271 194.278 193.775 177.775C210.278 161.271 232.661 152 256 152ZM462.354 148C461.304 149.82 459.905 151.416 458.239 152.695C456.572 153.974 454.669 154.913 452.639 155.457C450.61 156.001 448.493 156.139 446.409 155.864C444.326 155.59 442.317 154.907 440.498 153.856L431.16 148.466C426.688 152.298 421.549 155.275 416 157.248V168C416 172.243 414.314 176.313 411.314 179.314C408.313 182.314 404.243 184 400 184C395.756 184 391.687 182.314 388.686 179.314C385.686 176.313 384 172.243 384 168V157.248C378.451 155.275 373.312 152.298 368.84 148.466L359.502 153.856C355.829 155.944 351.479 156.495 347.402 155.388C343.324 154.281 339.85 151.606 337.738 147.947C335.625 144.288 335.045 139.942 336.125 135.857C337.205 131.773 339.857 128.281 343.502 126.144L352.816 120.766C351.727 114.973 351.727 109.027 352.816 103.234L343.502 97.856C339.857 95.7192 337.205 92.2274 336.125 88.1427C335.045 84.058 335.625 79.7119 337.738 76.0529C339.85 72.3939 343.324 69.719 347.402 68.612C351.479 67.505 355.829 68.0557 359.502 70.144L368.84 75.534C373.312 71.7016 378.451 68.7247 384 66.752V56C384 51.7565 385.686 47.6869 388.686 44.6863C391.687 41.6857 395.756 40 400 40C404.243 40 408.313 41.6857 411.314 44.6863C414.314 47.6869 416 51.7565 416 56V66.752C421.549 68.7247 426.688 71.7016 431.16 75.534L440.498 70.144C442.318 69.0768 444.332 68.3803 446.422 68.0944C448.513 67.8086 450.639 67.9391 452.679 68.4784C454.719 69.0178 456.633 69.9553 458.309 71.237C459.985 72.5188 461.391 74.1194 462.446 75.9468C463.501 77.7741 464.184 79.7921 464.456 81.8846C464.728 83.9771 464.584 86.1027 464.031 88.1391C463.478 90.1754 462.528 92.0823 461.235 93.75C459.942 95.4176 458.332 96.8131 456.498 97.856L447.184 103.234C448.273 109.027 448.273 114.973 447.184 120.766L456.498 126.144C460.173 128.266 462.854 131.76 463.952 135.859C465.051 139.958 464.476 144.325 462.354 148ZM400 128C403.164 128 406.258 127.062 408.889 125.304C411.52 123.545 413.571 121.047 414.782 118.123C415.993 115.199 416.31 111.982 415.692 108.879C415.075 105.775 413.551 102.924 411.314 100.686C409.076 98.4487 406.225 96.9248 403.121 96.3074C400.018 95.6901 396.801 96.0069 393.877 97.2179C390.953 98.4289 388.454 100.48 386.696 103.111C384.938 105.742 384 108.836 384 112C384.005 116.242 385.693 120.308 388.692 123.308C391.691 126.307 395.758 127.995 400 128ZM444.74 217.112C440.526 217.615 436.685 219.771 434.062 223.107C431.438 226.442 430.247 230.683 430.75 234.896C431.582 241.9 432 248.947 432 256C432.033 299.084 416.197 340.671 387.516 372.82C374.672 354.212 358.017 338.55 338.656 326.872C316.391 348.136 286.788 360.001 256.001 360.001C225.214 360.001 195.61 348.136 173.346 326.872C153.984 338.549 137.328 354.212 124.484 372.82C101.934 347.474 87.1948 316.148 82.042 282.617C76.8893 249.085 81.543 214.779 95.4424 183.832C109.342 152.885 131.894 126.618 160.381 108.195C188.868 89.7727 222.075 79.981 256 80C261.454 80 266.954 80.252 272.35 80.748C276.576 81.1371 280.783 79.8316 284.046 77.1187C287.309 74.4058 289.361 70.5077 289.75 66.282C290.139 62.0563 288.833 57.8491 286.121 54.586C283.408 51.3229 279.51 49.2711 275.284 48.882C268.873 48.2943 262.438 48 256 48C214.077 47.9806 173.128 60.6355 138.526 84.3041C103.924 107.973 77.2861 141.549 62.1073 180.627C46.9285 219.706 43.9183 262.46 53.4717 303.279C63.0251 344.099 84.6958 381.076 115.64 409.36C116.431 410.25 117.32 411.049 118.29 411.74C156.262 445.409 205.253 464.001 256.003 464C306.752 464 355.743 445.406 393.714 411.736C394.68 411.048 395.565 410.254 396.354 409.368C417.676 389.915 434.706 366.227 446.353 339.819C458.001 313.411 464.011 284.863 464 256C464 247.679 463.507 239.366 462.524 231.104C462.275 229.018 461.618 227.001 460.589 225.168C459.561 223.336 458.181 221.724 456.53 220.425C454.879 219.125 452.987 218.164 450.964 217.596C448.941 217.027 446.826 216.863 444.74 217.112Z" fill="black" fill-opacity="0.2"/>
</svg>
